<?xml version="1.0" standalone="no"?>
<!DOCTYPE svg PUBLIC "-//W3C//DTD SVG 20010904//EN"
 "http://www.w3.org/TR/2001/REC-SVG-20010904/DTD/svg10.dtd">
<svg version="1.0" xmlns="http://www.w3.org/2000/svg"
 width="331.000000pt" height="294.000000pt" viewBox="0 0 331.000000 294.000000"
 preserveAspectRatio="xMidYMid meet">
<metadata>
Created by potrace 1.16, written by Peter Selinger 2001-2019
</metadata>
<g transform="translate(0.000000,294.000000) scale(0.100000,-0.100000)"
fill="#000000" stroke="none">
<path d="M2095 2744 c-53 -9 -159 -46 -214 -76 -151 -82 -219 -162 -260 -309
-28 -100 -27 -179 4 -276 38 -119 88 -196 205 -313 150 -150 269 -226 620
-398 379 -184 501 -292 531 -469 13 -83 2 -158 -33 -223 -38 -69 -119 -169
-198 -244 -34 -32 -60 -60 -58 -62 7 -7 93 38 173 90 199 130 309 291 322 470
11 164 -30 285 -132 388 -71 73 -117 100 -57 34 41 -44 72 -100 72 -127 0 -7
-37 23 -82 67 -47 45 -124 106 -178 139 -52 32 -160 100 -240 150 -80 50 -191
117 -248 149 -123 69 -238 154 -331 245 -61 59 -70 74 -88 136 -29 99 -33 137
-22 206 17 105 53 156 138 199 41 20 55 22 150 17 160 -7 247 -49 433 -206
140 -118 289 -217 299 -199 13 23 -6 81 -45 137 -20 29 -36 61 -36 71 0 9 11
38 25 64 14 26 25 55 25 65 0 30 -93 108 -172 145 -121 56 -194 86 -214 86
-11 0 -39 10 -64 21 -35 16 -71 21 -170 24 -69 2 -138 1 -155 -1z m265 -24
c41 -11 86 -22 100 -26 113 -29 320 -135 334 -171 10 -25 -47 -13 -105 23 -86
52 -237 120 -306 138 -119 31 -293 19 -449 -29 -12 -4 -9 0 6 9 39 24 158 58
235 66 105 11 105 11 185 -10z"/>
<path d="M2080 1932 c19 -15 44 -32 55 -38 39 -22 311 -177 395 -226 47 -27
105 -62 130 -78 25 -16 55 -34 68 -40 13 -5 42 -23 65 -38 49 -33 84 -52 47
-25 -13 10 -33 26 -42 36 -10 9 -21 17 -24 17 -4 0 -46 24 -93 54 -47 29 -99
61 -116 70 -38 21 -62 36 -100 62 -39 27 -141 86 -235 137 -41 22 -94 53 -119
69 -57 36 -77 36 -31 0z"/>
<path d="M1285 1555 c-147 -47 -263 -139 -472 -375 -238 -269 -366 -380 -515
-450 -60 -28 -203 -70 -240 -70 -38 0 -15 -16 40 -29 251 -55 517 -75 635 -47
177 42 302 137 542 416 274 319 331 363 505 391 39 7 70 15 70 20 0 4 -21 23
-47 42 -168 120 -350 157 -518 102z m292 -16 c34 -11 69 -29 79 -41 l19 -21
-55 7 c-30 3 -117 9 -192 12 -76 4 -138 10 -138 14 0 6 50 31 90 44 38 12 140
5 197 -15z"/>
<path d="M1805 1281 c-64 -16 -187 -84 -258 -141 -64 -51 -161 -151 -305 -315
-119 -134 -220 -231 -324 -308 -84 -62 -270 -137 -342 -137 -38 0 -69 -16 -46
-23 58 -18 309 -59 422 -69 250 -21 379 16 558 160 71 57 135 125 278 292 149
174 256 278 318 311 27 15 91 37 142 49 50 12 92 25 92 29 0 11 -111 80 -190
118 -72 35 -80 37 -195 39 -66 2 -134 0 -150 -5z m226 -17 c30 -9 71 -25 93
-36 58 -30 34 -42 -58 -29 -43 6 -116 11 -164 12 -48 0 -96 4 -107 8 -19 7
-18 9 5 21 26 14 119 38 156 39 11 1 45 -6 75 -15z"/>
<path d="M2271 994 c-149 -40 -267 -133 -498 -391 -242 -269 -343 -358 -488
-431 -68 -34 -178 -69 -251 -79 l-49 -7 45 -13 c50 -16 241 -49 370 -65 180
-22 347 4 465 73 105 60 241 190 415 394 221 260 304 323 465 350 79 13 80 14
56 39 -28 30 -183 110 -250 130 -68 20 -207 20 -280 0z m297 -31 c38 -15 62
-31 62 -40 0 -11 -7 -14 -27 -9 -16 3 -93 8 -173 12 -177 7 -184 9 -143 35 69
44 173 45 281 2z"/>
</g>
</svg>
